<svg width="114" height="108" viewBox="0 0 114 108" fill="none" xmlns="http://www.w3.org/2000/svg">
<path d="M79.4883 0.851982C77.4844 1.54222 76.2598 2.29925 74.768 3.81331C73.3652 5.21605 72.0293 7.643 71.8066 9.1348L71.673 10.0254L80.2676 15.8813C84.9879 19.1098 88.9957 21.7817 89.1738 21.8485C89.4633 21.9598 89.5078 20.6239 89.5078 11.161V0.339872H85.2328C81.3808 0.339872 80.7797 0.40667 79.4883 0.851982Z" fill="white"/>
<path d="M95.9648 11.1387C95.9648 17.8184 96.0539 21.9375 96.1875 21.9375C96.2988 21.9375 100.351 19.2211 105.183 15.9258L113.955 9.91406L113.666 8.82305C112.931 6.01758 110.616 3.07851 108.1 1.74258C105.739 0.517967 104.782 0.339842 100.151 0.339842H95.9648V11.1387Z" fill="white"/>
<path d="M41.325 7.28674C40.3453 7.39806 38.3859 7.73205 36.9832 8.04377C17.7234 12.2074 3.09492 27.9715 0.333985 47.543C-0.111327 50.6824 -0.0890614 57.2953 0.356251 60.4793C2.80547 78.0469 15.007 92.809 31.773 98.509C40.3453 101.426 49.8527 101.782 58.6699 99.5332C60.273 99.1324 62.3215 98.509 63.2344 98.1528L64.9043 97.5071L64.9711 91.7848C64.9934 88.6453 64.9711 86.0625 64.9043 86.0625C64.8375 86.0625 64.1027 86.3965 63.2789 86.8196C57.5344 89.6918 50.2535 91.1391 44.1973 90.5602C40.6125 90.2262 38.5863 89.8031 35.3801 88.7344C29.7246 86.8641 24.893 83.8137 20.6848 79.4719C15.4969 74.0836 12.3574 68.0496 10.8656 60.6352C10.2199 57.4067 10.1754 51.0387 10.7543 47.877C12.157 40.3512 15.3188 34.1613 20.5957 28.6617C30.7266 18.0856 46.0008 14.5453 59.5605 19.5996C60.7852 20.0672 62.4551 20.7797 63.2789 21.1805C64.1027 21.6035 64.8375 21.9375 64.9043 21.9375C64.9711 21.9375 64.9934 19.3547 64.9711 16.2153L64.9043 10.493L63.2344 9.84728C60.7184 8.88986 56.1094 7.77658 53.0367 7.3758C50.0531 6.99728 44.2641 6.95275 41.325 7.28674Z" fill="white"/>
<path d="M71.4727 25.1215V32.5359L80.1562 38.5031C84.9434 41.7762 88.9957 44.4926 89.1738 44.5816C89.4633 44.693 89.5078 43.7801 89.4633 37.2785L89.3965 29.8863L80.8242 24.0082C76.1039 20.7574 72.0738 18.0187 71.8734 17.9074C71.4949 17.707 71.4727 18.1078 71.4727 25.1215Z" fill="white"/>
<path d="M104.938 23.8523L95.9648 29.9977V37.323C95.9648 41.7984 96.0539 44.6484 96.1875 44.6484C96.2988 44.6484 100.351 41.932 105.205 38.6145L114 32.6027V25.1438C114 21.0469 113.978 17.707 113.955 17.707C113.911 17.707 109.859 20.468 104.938 23.8523Z" fill="white"/>
<path d="M41.3695 24.2976C38.8758 24.7429 35.8031 25.7894 33.3984 26.9918C31.1719 28.1051 27.832 30.3539 27.832 30.7324C27.832 30.866 30.682 33.8051 34.1555 37.2785L40.5012 43.6019L41.8148 43.023C42.5496 42.689 43.2621 42.4219 43.3957 42.4219C43.5738 42.4219 43.6406 39.8836 43.6406 33.1816C43.6406 25.923 43.5738 23.9414 43.3734 23.9636C43.2176 23.9636 42.327 24.1195 41.3695 24.2976Z" fill="white"/>
<path d="M50.0977 33.0703C50.0977 41.5758 50.1199 42.2215 50.4984 42.3551C50.6988 42.4219 51.4336 42.7113 52.1016 43.0231L53.3039 43.5574L59.1598 37.7016L65.0156 31.8457V30.7992C65.0156 29.775 64.9934 29.7305 63.7465 28.8844C62.032 27.7266 58.8258 26.1457 56.7773 25.4332C55.3301 24.9434 51.0328 23.9414 50.3426 23.9414C50.1645 23.9414 50.0977 26.6133 50.0977 33.0703Z" fill="white"/>
<path d="M21.7313 37.3453C20.1949 39.7055 19.3711 41.3754 18.4805 43.8691C17.8348 45.7395 16.9441 49.391 16.9219 50.2816C16.9219 50.6379 17.4563 50.6602 26.0953 50.6156L35.2688 50.5488L35.6918 49.4801L36.1371 48.3891L29.7023 41.9543C26.1621 38.4141 23.2008 35.5195 23.0895 35.5195C23.0004 35.5195 22.377 36.3434 21.7313 37.3453Z" fill="white"/>
<path d="M71.4727 48.0551V55.6922L80.1562 61.6594C84.9434 64.9324 88.9957 67.6488 89.1738 67.7379C89.4633 67.8492 89.5078 66.914 89.4633 60.2344L89.3965 52.5973L80.8242 46.7191C76.1039 43.4906 72.0738 40.7297 71.8734 40.6183C71.4949 40.418 71.4727 40.841 71.4727 48.0551Z" fill="white"/>
<path d="M104.938 46.5633L95.9648 52.7086V60.2566C95.9648 64.8879 96.0539 67.8047 96.1875 67.8047C96.2988 67.8047 100.351 65.0883 105.205 61.7707L114 55.759V48.0773C114 43.8691 113.978 40.418 113.955 40.418C113.911 40.4402 109.859 43.2012 104.938 46.5633Z" fill="white"/>
<path d="M61.1859 44.8043L57.7125 48.3223L58.1578 49.4801L58.6254 50.6602H61.8094H65.0156V45.9844C65.0156 43.4016 64.9488 41.3086 64.8375 41.3086C64.7484 41.3086 63.1008 42.8895 61.1859 44.8043Z" fill="white"/>
<path d="M45.6668 48.4559C42.7055 49.0348 40.7238 52.1965 41.3918 55.2023C42.2824 59.2102 46.7801 60.9469 50.2535 58.609C52.8363 56.8723 53.3484 52.9535 51.3445 50.3262C50.2312 48.8789 47.7152 48.0328 45.6668 48.4559Z" fill="white"/>
<path d="M16.9219 57.7184C16.9441 59.4551 18.5918 64.9547 19.8609 67.4707C20.4844 68.7176 22.4437 71.8125 23.2676 72.8145C23.6016 73.2375 23.8687 72.9926 30.0809 66.7805L36.5379 60.3235L35.8254 58.8317L35.1352 57.3399H26.0285C17.5008 57.3399 16.9219 57.3621 16.9219 57.7184Z" fill="white"/>
<path d="M58.5586 57.607C58.5586 57.7629 58.2914 58.3863 58.002 59.0098C57.6902 59.6109 57.4453 60.2344 57.4453 60.3457C57.4453 60.6129 64.5926 67.8047 64.8598 67.8047C64.9488 67.8047 65.0156 65.4445 65.0156 62.5723V57.3398H61.7871C59.3602 57.3398 58.5586 57.4066 58.5586 57.607Z" fill="white"/>
<path d="M71.5172 71.0555L71.584 78.5813L80.4902 84.682L89.3965 90.7606L89.4633 83.3684C89.5078 77.6238 89.441 75.8871 89.2406 75.6867C88.9957 75.4641 73.7437 64.9992 72.0738 63.9082L71.4727 63.5297L71.5172 71.0555Z" fill="white"/>
<path d="M104.938 69.7195L95.9648 75.8649V83.3238C95.9648 87.5098 96.0539 90.7383 96.1652 90.6938C96.2766 90.6492 100.329 87.9106 105.161 84.6152L113.978 78.6035L114 71.0777C114 66.9586 113.978 63.5742 113.955 63.5742C113.911 63.5742 109.859 66.3352 104.938 69.7195Z" fill="white"/>
<path d="M34.6453 71.3449L28.2328 77.7574L29.6356 78.7594C33.3539 81.3867 38.3191 83.3684 42.5941 83.9027L43.6406 84.0586V74.8629V65.6895L42.5496 65.2887C41.9484 65.0883 41.3695 64.9102 41.2805 64.9102C41.1691 64.9102 38.1856 67.8047 34.6453 71.3449Z" fill="white"/>
<path d="M51.2109 65.3332L50.209 65.7563L50.1422 74.9297L50.0977 84.1031L51.0328 83.9473C55.575 83.2793 59.7164 81.743 63.3012 79.4051C64.6148 78.5367 65.0156 78.1582 65.0156 77.7797C65.0156 77.4012 63.3012 75.5532 58.8258 71.0778C55.4414 67.6934 52.5469 64.9102 52.4355 64.9324C52.302 64.9324 51.7676 65.1106 51.2109 65.3332Z" fill="white"/>
<path d="M71.5172 92.5418C71.584 98.2195 71.6285 98.7316 72.0961 99.9785C73.0981 102.628 75.1688 105.077 77.4621 106.302C79.711 107.482 80.7352 107.66 85.3219 107.66H89.5078V103.14V98.6203L80.802 92.6531C76.0149 89.3801 71.9402 86.6414 71.7621 86.5746C71.4949 86.4633 71.4504 87.3094 71.5172 92.5418Z" fill="white"/>
<path d="M104.827 92.5863L95.9648 98.6426V103.14V107.66H100.151C103.335 107.66 104.626 107.571 105.561 107.304C109.502 106.146 112.486 103.163 113.644 99.2215C113.933 98.2418 114 96.8613 114 92.2523C114 89.0906 113.933 86.5078 113.844 86.5078C113.733 86.5301 109.68 89.2465 104.827 92.5863Z" fill="white"/>
</svg>
