<svg width="63" height="55" viewBox="0 0 63 55" fill="none" xmlns="http://www.w3.org/2000/svg">
<path d="M18.2908 1.77681V3.55362L17.9005 3.28588C17.2909 2.88427 16.1081 2.36097 15.3033 2.12974C14.8399 1.99587 13.901 1.89851 12.7669 1.862L10.9501 1.78898L10.9988 5.4278C11.0598 9.44387 11.1086 9.76029 11.9012 11.4032C12.9864 13.6547 14.9496 15.3585 17.3762 16.1373L18.2298 16.4051V20.2751V24.1452L17.803 24.2425C15.6325 24.7415 13.9985 25.6056 12.4499 27.0659C10.9135 28.5385 9.81604 30.4979 9.34048 32.6398L9.26731 32.9805H6.5237H3.78009V31.155V29.3296H1.89004H0V38.5179V47.7062H2.74361H5.48723V48.1686C5.48723 48.911 5.9262 50.4444 6.40176 51.3328C8.18206 54.7161 12.9011 56.0182 16.4983 54.1319C17.6201 53.5477 18.8883 52.2334 19.4248 51.1138C19.8516 50.201 20.2418 48.765 20.2418 48.0834V47.7062H31.2162H42.1907V48.0591C42.1907 48.7771 42.5687 50.2132 43.0077 51.1138C43.5442 52.2334 44.8123 53.5477 45.9342 54.1319C48.1291 55.2759 50.9215 55.288 53.1773 54.1441C54.2138 53.6329 55.5673 52.2821 56.0794 51.2476C56.5184 50.3836 56.9452 48.8745 56.9452 48.1686V47.7062H59.6888H62.4324V37.24V26.7739L59.2376 22.5144L56.0307 18.2549H46.3732H36.7034V25.6177V32.9805H33.9111H31.1187L30.9845 32.3599C30.6797 30.936 29.7286 29.0618 28.7409 27.9057C27.1801 26.0924 25.3022 24.924 22.9854 24.3399L22.1318 24.1208L22.0952 22.125L22.0708 20.1169L23.0707 19.7883C24.473 19.3259 25.6314 18.62 26.7167 17.5369C27.7532 16.4903 28.4848 15.3341 28.9847 13.9224C29.3262 12.961 29.3262 12.9488 29.3628 9.21265L29.3993 5.47647H28.0702C25.9363 5.47647 24.3511 5.86591 22.8756 6.75432C22.4854 6.98555 22.144 7.18027 22.1196 7.18027C22.0952 7.18027 22.0708 5.56166 22.0708 3.59013V0H20.1808H18.2908V1.77681ZM15.9008 6.5596C16.9616 7.28979 17.7786 8.44594 18.0956 9.6751C18.2908 10.4053 18.3639 12.4133 18.2054 12.4133C17.9249 12.4133 16.8031 11.6223 16.2666 11.0503C15.1935 9.9185 14.7545 8.72585 14.7545 6.97338V5.96327L15.0716 6.08497C15.2423 6.15799 15.6203 6.36488 15.9008 6.5596ZM25.4851 12.2916C25.3022 13.0218 24.8266 13.9468 24.3145 14.5674C23.8999 15.0664 22.5098 16.0643 22.2294 16.0643C22.0343 16.0643 22.0099 14.6891 22.1928 13.7399C22.4732 12.243 23.5341 10.7582 24.8876 9.99152L25.5461 9.61425L25.5827 10.6852C25.6071 11.2694 25.5583 11.9874 25.4851 12.2916ZM47.6779 27.5649V33.1022H53.1651H58.6523V38.5179V43.9335H57.311H55.9819L55.6161 43.4102C55.0917 42.6435 53.9333 41.6212 53.1041 41.1709C51.4214 40.2825 49.0924 40.0878 47.2511 40.6841C45.7147 41.1831 44.4099 42.1445 43.5198 43.4102L43.154 43.9335H41.8249H40.4835V32.9805V22.0276H44.0807H47.6779V27.5649ZM56.3721 25.0701C58.628 28.0761 58.6523 28.1247 58.6523 28.7211V29.3296H55.0552H51.458V25.6786V22.0276H52.7749H54.0797L56.3721 25.0701ZM21.9489 28.003C23.3756 28.3681 24.3267 28.9036 25.3632 29.9381C26.2167 30.79 26.8508 31.7757 27.1313 32.7006L27.2044 32.9805H20.193H13.1693L13.401 32.372C14.279 30.0598 16.3032 28.429 18.9614 27.8692C20.132 27.6258 20.51 27.6379 21.9489 28.003ZM36.7034 40.3434V43.9335H27.9848H19.2785L18.9126 43.4102C17.5713 41.4873 15.4374 40.392 12.9864 40.3677C11.5598 40.3555 10.755 40.5259 9.53558 41.0979C8.59665 41.536 7.36508 42.5826 6.76758 43.4467L6.42615 43.9335H5.10922H3.78009V40.3434V36.7532H20.2418H36.7034V40.3434ZM14.157 44.3716C15.3398 44.7489 16.2788 46.0024 16.4251 47.3776C16.5592 48.7163 15.8154 50.0915 14.5472 50.8338C13.7059 51.3206 12.3402 51.3815 11.45 50.9677C9.53558 50.0793 8.74298 47.8887 9.66971 46.0511C10.5111 44.3959 12.2426 43.7388 14.157 44.3716ZM50.263 44.1891C51.4458 44.4446 52.2506 45.0409 52.7627 46.0511C53.6895 47.8887 52.8969 50.0793 50.9824 50.9677C50.4215 51.2233 50.2142 51.2598 49.3972 51.2111C48.2632 51.1381 47.6657 50.8582 46.9219 50.0306C46.0439 49.057 45.7757 47.9009 46.1537 46.6474C46.5195 45.4304 47.3974 44.5907 48.6534 44.2499C49.4948 44.0308 49.4826 44.0308 50.263 44.1891Z" fill="#F7654A"/>
</svg>
