<svg width="68" height="68" viewBox="0 0 68 68" fill="none" xmlns="http://www.w3.org/2000/svg">
<path d="M25.9383 0.318748L25.5664 0.637497L25.5 3.78516L25.4336 6.93281L24.2383 7.35781C23.5875 7.59687 22.5648 8.00859 21.9938 8.2875L20.9313 8.76562L18.793 6.64062L16.6547 4.51562H16.0172H15.393L10.0938 9.72187C7.18516 12.5773 4.74141 15.0609 4.66172 15.2336C4.58203 15.4062 4.51562 15.8047 4.51562 16.0969C4.51562 16.6281 4.58203 16.7211 6.64062 18.793L8.76562 20.9312L8.2875 21.9937C8.00859 22.5648 7.59688 23.5742 7.35781 24.2383L6.93281 25.4336L3.78516 25.5L0.6375 25.5664L0.31875 25.9383L0 26.3102V34V41.6898L0.31875 42.0617L0.6375 42.4336L3.78516 42.5L6.93281 42.5664L7.37109 43.8016C8.10156 45.8469 8.42031 46.2055 9.49609 46.2188C10.0141 46.232 10.0938 46.1656 14.1711 42.0484C16.4555 39.7375 18.4078 37.6656 18.5273 37.4398C18.7266 37.068 18.7266 36.8687 18.5805 35.6336C18.368 33.8273 18.4875 31.7687 18.9125 30.1086C20.9977 21.9008 30.1219 16.7211 38.343 19.0586C44.0672 20.7055 48.4367 25.7656 49.3266 31.782C49.5922 33.5219 49.5922 34.4648 49.3398 36.2047C48.8352 39.5914 47.268 42.6461 44.8109 45.05C43.4828 46.3516 42.4867 47.0555 40.8398 47.8789C38.1703 49.1938 35.4344 49.6984 32.5125 49.4195C30.932 49.2602 30.7727 49.2734 30.4406 49.4859C30.2414 49.6055 28.2094 51.5711 25.925 53.8422L21.7812 57.9727V58.5836C21.7812 58.9953 21.8742 59.3141 22.0469 59.5398C22.2992 59.8586 23.6406 60.4961 24.8094 60.8414L25.3672 61.0008V63.843C25.3672 66.8844 25.4469 67.3625 26.0445 67.7875C26.3234 67.9734 27.1469 68 34.0266 68H41.6898L42.0617 67.6812L42.4336 67.3625L42.5 64.2148L42.5664 61.0672L43.7617 60.6422C44.4258 60.4031 45.4352 59.9914 46.0063 59.7125L47.0688 59.2344L49.207 61.3594L51.3453 63.4844H52.0094H52.6602L58.0656 58.0656C63.2984 52.8328 63.4844 52.6336 63.4844 52.1555C63.4844 51.8766 63.418 51.518 63.3383 51.3586C63.2586 51.1992 62.3023 50.1633 61.2133 49.0742L59.2211 47.0687L59.7125 46.0195C59.9781 45.4352 60.3898 44.4125 60.6289 43.7617L61.0672 42.5664L64.2148 42.5L67.3625 42.4336L67.6813 42.0617L68 41.6898V34V26.3102L67.6813 25.9383L67.3625 25.5664L64.2148 25.5L61.0672 25.4336L60.6422 24.2383C60.4031 23.5742 59.9914 22.5648 59.7125 21.9937L59.2344 20.9312L61.3594 18.793L63.4844 16.6547V16.0039V15.3664L59.6195 11.4352C57.4813 9.27031 55.0773 6.82656 54.2539 6.00312L52.7531 4.51562H52.0492H51.3453L49.207 6.64062L47.0688 8.76562L46.0063 8.2875C45.4352 8.00859 44.4258 7.59687 43.7617 7.35781L42.5664 6.93281L42.5 3.78516L42.4336 0.637497L42.0617 0.318748L41.6898 0H34H26.3102L25.9383 0.318748ZM39.6047 5.76406C39.6578 9.36328 39.5117 9.11094 41.982 9.90781C43.0047 10.2398 44.4789 10.8508 45.3688 11.3023C47.0555 12.1656 47.5734 12.2719 48.1844 11.8734C48.3836 11.7539 49.3398 10.8641 50.3094 9.90781L52.0758 8.18125L56.007 12.1125L59.9383 16.0437L58.5703 17.3453C56.6047 19.2312 55.9141 20.0945 55.9141 20.6656C55.9141 20.9578 56.193 21.6883 56.7242 22.7242C57.1625 23.6141 57.7867 25.1148 58.1055 26.0711C58.4242 27.0273 58.8227 27.9305 58.9688 28.0766C59.2211 28.3422 59.4203 28.3555 62.1562 28.3953L65.0781 28.4352V34V39.5648L62.2359 39.6047C58.65 39.6578 58.8891 39.5117 58.0922 41.9688C57.7734 42.9516 57.1492 44.4789 56.7242 45.3555C56.2859 46.232 55.9008 47.0555 55.8609 47.1883C55.7016 47.6797 56.2063 48.3836 57.9859 50.2031L59.8188 52.0758L55.8875 56.007L51.9563 59.9383L50.6547 58.5703C48.7688 56.6047 47.9055 55.9141 47.3344 55.9141C47.0422 55.9141 46.3117 56.193 45.2758 56.7242C44.3859 57.1625 42.8852 57.7867 41.9289 58.1055C40.9727 58.4242 40.0695 58.8227 39.9234 58.9688C39.6578 59.2211 39.6445 59.4203 39.6047 62.1562L39.5648 65.0781H34H28.4352L28.3953 62.2359C28.3422 58.8227 28.3422 58.7961 26.9211 58.3711C26.4297 58.225 26.0312 58.0789 26.0312 58.0391C26.0312 57.9992 27.2797 56.7242 28.807 55.1969L31.5961 52.4211L34.1594 52.3945C36.9484 52.3812 37.8648 52.2352 40.0297 51.518C46.0727 49.5125 50.8273 43.9211 52.1289 37.2937C52.4344 35.7531 52.5273 32.9773 52.3414 31.4234C51.332 23.4812 45.0234 17.0531 36.9219 15.725C35.0891 15.4195 31.9016 15.5391 29.9891 15.9906C26.4297 16.8141 23.3219 18.5539 20.7586 21.1437C17.1727 24.7828 15.4727 29.0328 15.5523 34.2258L15.5922 36.2578L12.8297 39.1133C11.3156 40.6805 10.0273 41.9688 9.97422 41.9688C9.92109 41.9688 9.80156 41.6766 9.70859 41.3312C9.46953 40.3484 9.12422 39.8836 8.53984 39.7242C8.26094 39.6445 6.87969 39.5781 5.48516 39.5781H2.92188V34.0133V28.4352L5.76406 28.3953C9.35 28.3422 9.11094 28.4883 9.90781 26.0312C10.2266 25.0484 10.8508 23.5211 11.3023 22.6445C12.1656 20.9445 12.2719 20.4266 11.8734 19.8156C11.7539 19.6164 10.8641 18.6602 9.90781 17.6906L8.18125 15.9242L12.1125 11.993L16.0438 8.06172L17.3453 9.42969C19.2313 11.3953 20.0945 12.0859 20.6656 12.0859C20.9578 12.0859 21.6883 11.807 22.7242 11.2758C23.6141 10.8375 25.1148 10.2133 26.0711 9.89453C27.0273 9.57578 27.9305 9.17734 28.0766 9.03125C28.3422 8.7789 28.3555 8.57969 28.3953 5.84375L28.4352 2.92188H34H39.5648L39.6047 5.76406Z" fill="#F7654A"/>
<path d="M32.5125 22.3125C30.8789 22.5914 29.1523 23.3219 27.6914 24.3711C25.5133 25.925 23.8797 28.4883 23.2953 31.2109C23.0828 32.2469 23.0562 34.5844 23.2555 35.6469L23.3883 36.4172L22.2992 37.5594C21.6883 38.1969 17 42.9516 11.8867 48.1445C1.03593 59.1281 1.66015 58.3445 1.66015 60.8945C1.66015 62.3289 1.67343 62.3953 2.15156 63.3781C2.74921 64.5867 3.51952 65.3305 4.75468 65.9148C5.5914 66.3133 5.73749 66.3398 7.10546 66.3398C9.64218 66.3398 8.88515 66.9508 19.7758 56.193C24.9156 51.1062 29.6836 46.4312 30.3609 45.7805L31.5961 44.6117L32.4859 44.7711C33.0172 44.8641 34.0531 44.9039 35.0492 44.8641C36.4836 44.8109 36.9086 44.7312 38.0109 44.3594C40.2023 43.6289 42.168 42.2344 43.5094 40.468C44.2398 39.5117 45.1828 37.5992 45.4883 36.457C46.1125 34.1195 45.7406 30.1086 44.8109 29.1789C44.4125 28.7805 43.682 28.6211 43.2703 28.8336C43.0976 28.9133 41.6633 30.268 40.0828 31.8484L37.1875 34.7172L35.8859 34.0797L34.5711 33.4289L33.9203 32.1141L33.2695 30.7992L36.0984 27.9969C37.6523 26.4562 39.0203 25.0219 39.1266 24.8094C39.3789 24.318 39.2594 23.6141 38.8211 23.1891C38.0375 22.4055 34.7039 21.9406 32.5125 22.3125ZM32.6852 27.1734C31.5031 28.3156 30.3875 29.5109 30.1883 29.843C29.75 30.5867 29.7766 30.693 31.2508 33.5352L32.3398 35.6602L34.6375 36.8289C36.5367 37.7852 37.0414 37.9844 37.5461 37.9844H38.1703L40.5476 35.6203L42.925 33.2695L42.8586 34.2125C42.593 37.6258 40.1492 40.6008 36.7492 41.6766C35.6469 42.0219 33.2562 41.982 32.0344 41.5969L31.0648 41.2914L30.4406 41.65C29.7633 42.0484 27.3726 44.3727 16.1766 55.4758C8.72577 62.8734 8.20781 63.3383 7.31796 63.3516C5.92343 63.3648 4.63515 62.0766 4.64843 60.682C4.66171 59.8055 5.13984 59.2875 15.0476 49.2602C25.168 39.007 26.5226 37.5992 26.6422 37.1078C26.682 36.9484 26.6023 36.4437 26.4562 35.9789C25.3406 32.393 26.7883 28.5281 30.0156 26.443C31.1844 25.6859 32.8976 25.1547 34.2523 25.1148L34.8367 25.1016L32.6852 27.1734Z" fill="#F7654A"/>
</svg>
