<svg width="50" height="50" viewBox="0 0 50 50" fill="none" xmlns="http://www.w3.org/2000/svg">
<path d="M21.875 0.146481C17.3633 0.732418 13.5156 2.31445 9.76563 5.11718C8.56446 6.00586 6.00586 8.57421 5.09766 9.78515C2.51953 13.2324 0.89844 17.0312 0.234378 21.1426C-0.00976297 22.6562 -0.0585911 26.3867 0.136721 28.0273C0.791018 33.3789 3.13477 38.3398 6.85547 42.2363C10.7129 46.2695 15.3906 48.7598 20.9375 49.7266C22.6367 50.0195 26.2402 50.0879 28.0371 49.8535C38.7988 48.5059 47.4121 40.5273 49.5605 29.9316C50.0195 27.6855 50.1367 24.2285 49.8535 21.875C48.4473 10.5762 39.4238 1.55273 28.125 0.146481C26.6602 -0.0293007 23.2324 -0.0293007 21.875 0.146481ZM26.7773 2.49023C30.2344 2.68554 34.3359 4.09179 37.373 6.11328C42.627 9.6289 46.1523 14.9707 47.2754 21.1719C47.5391 22.6172 47.6367 25.9473 47.4609 27.4512C46.875 32.6074 44.5508 37.3828 40.8496 41.0351C37.1973 44.6484 32.6367 46.8457 27.4902 47.4609C26.3477 47.6074 23.6328 47.5976 22.4609 47.4609C14.9512 46.5625 8.39844 42.0215 4.93164 35.3125C3.85742 33.2422 3.14453 31.1523 2.71485 28.7793C2.51953 27.7344 2.49024 27.2656 2.49024 25C2.49024 22.0898 2.61719 21.1328 3.28125 18.8281C5.92774 9.60937 14.1406 3.00781 23.6816 2.4414C24.3262 2.40234 25.0781 2.39257 25.3418 2.40234C25.6152 2.42187 26.2598 2.46093 26.7773 2.49023Z" fill="black"/>
<path d="M24.6582 7.58786C24.3457 7.66599 10.8398 16.9629 10.3711 17.4121C10.127 17.6465 9.79492 18.1445 9.58985 18.5547L9.22852 19.2871L9.19922 27.0996C9.17969 34.6875 9.17969 34.9218 9.375 35.4785C9.91211 37.0703 11.2402 38.2031 12.8906 38.4668C13.75 38.6132 36.2207 38.6132 37.1094 38.4765C38.7402 38.2226 40.0781 37.08 40.625 35.498C40.8105 34.9511 40.8203 34.6777 40.8203 27.2949C40.8203 19.9121 40.8105 19.6386 40.625 19.0918C40.3516 18.3105 40.0293 17.7832 39.5313 17.3242C39.2969 17.1191 36.0547 14.8437 32.3145 12.2851C25.5273 7.63669 25.2148 7.44138 24.6582 7.58786ZM30.4883 14.0234C33.5059 16.1035 36.0645 17.8515 36.1523 17.9101C36.2891 18.0078 35.4883 18.5937 30.6543 21.9043L25 25.7812L19.3457 21.9043L13.6914 18.0273L15.3613 16.875C16.2891 16.25 18.8184 14.5019 20.9961 12.998C23.1738 11.5039 24.9609 10.2636 24.9707 10.2636C24.9707 10.2539 27.4609 11.9531 30.4883 14.0234ZM15.9277 22.5586C18.2031 24.1211 20.0684 25.4297 20.0684 25.4785C20.0684 25.6445 11.6797 34.1797 11.6016 34.1015C11.4941 33.9941 11.543 20.1269 11.6602 19.8925C11.6992 19.8047 11.748 19.7265 11.7676 19.7265C11.7871 19.7265 13.6621 21.0058 15.9277 22.5586ZM38.3398 19.8925C38.457 20.1172 38.5059 33.8476 38.3984 34.0429C38.3398 34.1504 37.3535 33.1933 34.1211 29.873C31.8164 27.5 29.9316 25.5175 29.9316 25.4785C29.9316 25.4004 38.0566 19.7558 38.1934 19.7363C38.2324 19.7265 38.3008 19.8047 38.3398 19.8925ZM25.0098 28.4668C25.4102 28.4668 25.5859 28.3789 26.6211 27.6758L27.7832 26.8847L32.1777 31.416C34.5996 33.8965 36.5918 35.9863 36.6016 36.0351C36.6309 36.1035 32.7051 36.1328 25 36.1328C17.2949 36.1328 13.3691 36.1035 13.3984 36.0351C13.418 35.9863 15.4102 33.9062 17.8223 31.416L22.2168 26.8847L23.3887 27.6758C24.4336 28.3789 24.6094 28.4668 25.0098 28.4668Z" fill="black"/>
</svg>
