<svg width="68" height="68" viewBox="0 0 68 68" fill="none" xmlns="http://www.w3.org/2000/svg">
<path d="M24.3313 2.39063C23.4547 2.92188 23.375 3.22735 23.375 6.00313V8.5H15.5789C8.02188 8.5 7.75625 8.51329 7.33125 8.76563C7.09219 8.91172 6.78672 9.21719 6.64062 9.45625C6.38828 9.86797 6.375 10.1336 6.375 13.8125C6.375 17.4914 6.38828 17.757 6.64062 18.1688C7.11875 18.9523 7.58359 19.125 9.20391 19.125H10.625V38.9273C10.625 61.0805 10.5586 59.407 11.5945 61.4258C12.6438 63.4578 14.8086 65.1578 17.0133 65.6758C18.2883 65.968 49.7117 65.968 50.9867 65.6758C53.1914 65.1578 55.3563 63.4578 56.4055 61.4258C57.4414 59.407 57.375 61.0805 57.375 38.9273V19.125H58.8094C60.4164 19.125 60.8813 18.9523 61.3594 18.1688C61.6117 17.757 61.625 17.4914 61.625 13.8125C61.625 10.1336 61.6117 9.86797 61.3594 9.45625C61.2133 9.21719 60.9078 8.91172 60.6688 8.76563C60.2438 8.51329 59.9781 8.5 52.4344 8.5H44.625V6.00313C44.625 3.22735 44.5453 2.92188 43.6688 2.39063C43.2438 2.13829 42.9781 2.125 34 2.125C25.0219 2.125 24.7563 2.13829 24.3313 2.39063ZM40.375 7.4375V8.5H34H27.625V7.4375V6.375H34H40.375V7.4375ZM57.375 13.8125V14.875H34H10.625V13.8125V12.75H34H57.375V13.8125ZM53.0984 38.6086C53.0586 53.8422 53.0188 58.2117 52.8859 58.5969C52.4609 59.8188 51.2391 61.0273 50.0305 61.3859C49.2203 61.6383 18.7797 61.6383 17.9695 61.3859C16.7609 61.0273 15.5391 59.8188 15.1141 58.5969C14.9812 58.2117 14.9414 53.8422 14.9016 38.6086L14.875 19.125H34H53.125L53.0984 38.6086Z" fill="#F7654A"/>
<path d="M22.2063 23.6406C21.9672 23.7867 21.6617 24.0922 21.5156 24.3312C21.25 24.7562 21.25 25.0352 21.25 40.375C21.25 55.7148 21.25 55.9937 21.5156 56.4187C21.9141 57.0562 22.5117 57.375 23.375 57.375C24.2383 57.375 24.8359 57.0562 25.2344 56.4187C25.5 55.9937 25.5 55.7148 25.5 40.375C25.5 25.0352 25.5 24.7562 25.2344 24.3312C24.8359 23.6937 24.2383 23.375 23.375 23.375C22.8836 23.375 22.4984 23.4547 22.2063 23.6406Z" fill="#F7654A"/>
<path d="M32.8313 23.6406C32.5922 23.7867 32.2867 24.0922 32.1406 24.3312C31.875 24.7562 31.875 25.0352 31.875 40.375C31.875 55.7148 31.875 55.9937 32.1406 56.4187C32.5391 57.0562 33.1367 57.375 34 57.375C34.8633 57.375 35.4609 57.0562 35.8594 56.4187C36.125 55.9937 36.125 55.7148 36.125 40.375C36.125 25.0352 36.125 24.7562 35.8594 24.3312C35.4609 23.6937 34.8633 23.375 34 23.375C33.5086 23.375 33.1234 23.4547 32.8313 23.6406Z" fill="#F7654A"/>
<path d="M43.4563 23.6406C43.2172 23.7867 42.9117 24.0922 42.7656 24.3312C42.5 24.7562 42.5 25.0352 42.5 40.375C42.5 55.7148 42.5 55.9937 42.7656 56.4187C43.1641 57.0562 43.7617 57.375 44.625 57.375C45.4883 57.375 46.0859 57.0562 46.4844 56.4187C46.75 55.9937 46.75 55.7148 46.75 40.375C46.75 25.0352 46.75 24.7562 46.4844 24.3312C46.0859 23.6937 45.4883 23.375 44.625 23.375C44.1336 23.375 43.7484 23.4547 43.4563 23.6406Z" fill="#F7654A"/>
</svg>
