<svg width="52" height="68" viewBox="0 0 52 68" fill="none" xmlns="http://www.w3.org/2000/svg">
<path d="M16.3578 0.318764C14.8703 1.00939 14.0469 2.32423 14.0469 3.98439C14.0602 5.56486 14.6977 6.73361 15.9859 7.45079L16.7031 7.86251V18.7797V29.7102L9.10625 42.8453C4.44453 50.907 1.38984 56.3391 1.17734 56.9102C0.778907 58.0258 0.646094 60.1242 0.898438 61.3992C1.21719 63.0727 2.37266 64.9852 3.78047 66.1539C4.61719 66.8445 6.33047 67.6813 7.33984 67.8672C7.91094 67.9735 13.3563 68 26.3984 67.9735L44.6602 67.9336L45.5234 67.6414C47.9539 66.8047 49.8531 64.9453 50.8094 62.4485C51.1281 61.6516 51.1547 61.3727 51.168 59.6992C51.168 58.1055 51.1281 57.7203 50.8625 56.9766C50.6898 56.4586 47.5156 50.8141 42.9336 42.8985L35.2969 29.6836V18.7664V7.86251L36.0008 7.46408C37.2758 6.74689 37.9398 5.55158 37.9531 3.98439C37.9531 2.32423 37.1297 1.00939 35.6422 0.318764L34.9648 1.52588e-05H26H17.0352L16.3578 0.318764ZM34.0883 2.73595C35.5094 3.02814 35.5094 4.94064 34.0883 5.23283C33.5438 5.33908 18.4563 5.33908 17.9117 5.23283C16.9023 5.02033 16.4773 3.85158 17.1813 3.14767C17.3672 2.96173 17.6461 2.77579 17.8055 2.74924C18.2703 2.65627 33.6367 2.64298 34.0883 2.73595ZM32.6406 19.3375V30.7195L33.5039 32.2203C33.982 33.0438 34.3672 33.7609 34.3672 33.8008C34.3672 33.8274 34.0219 33.8274 33.5969 33.7875C32.5742 33.6813 29.732 33.9203 26.5445 34.3984C22.6133 34.9828 20.6875 35.1156 18.775 34.9297C17.8852 34.85 17.1547 34.757 17.1281 34.7305C17.1016 34.7039 17.593 33.8008 18.2172 32.7117L19.3594 30.7328V29.1125V27.4922H21.9625H24.5656L24.9508 27.107C25.6945 26.35 25.3492 25.1281 24.3 24.8359C24.0344 24.7695 22.8125 24.7031 21.5906 24.7031H19.3594V22.9235V21.1305L21.4844 21.0906C23.5961 21.0508 23.6094 21.0508 23.968 20.6789C24.2602 20.3867 24.3398 20.1875 24.3398 19.7227C24.3398 19.2578 24.2602 19.0586 23.968 18.7664C23.6094 18.3945 23.5961 18.3945 21.4844 18.3547L19.3594 18.3149V16.4555V14.6094H21.9625H24.5656L24.9508 14.2242C25.6945 13.4672 25.3492 12.2453 24.3 11.9531C24.0344 11.8867 22.8125 11.8203 21.5906 11.8203H19.3594V9.89455V7.96877H26H32.6406V19.3375ZM34.7922 36.6695C35.4297 36.7492 36.0406 36.8953 36.1469 36.975C36.2531 37.0547 37.2891 38.768 38.4578 40.7734C45.4305 52.8195 47.7148 56.8305 48.0203 57.4945C48.6711 58.9024 48.5383 61.107 47.7414 62.4219C46.9844 63.657 45.7625 64.6133 44.3945 65.0383C43.6375 65.2641 42.6813 65.2774 25.9336 65.2774C9.10625 65.2774 8.22969 65.2641 7.56563 65.0383C6.13125 64.5336 4.90938 63.5641 4.25859 62.4219C3.55469 61.1602 3.35547 59.4336 3.75391 58.0789C3.87344 57.6938 5.91875 54.0016 8.32266 49.8445C13.1969 41.3977 15.5078 37.4133 15.5742 37.3469C15.6008 37.3203 15.9461 37.3602 16.3445 37.4531C17.5797 37.7055 20.4617 37.8383 22.2547 37.7188C23.1844 37.6524 25.2031 37.4133 26.7305 37.2008C31.6445 36.4836 32.7734 36.4172 34.7922 36.6695Z" fill="#F7654A"/>
</svg>
