<svg width="68" height="68" viewBox="0 0 68 68" fill="none" xmlns="http://www.w3.org/2000/svg">
<path d="M13.8656 0.292183C12.7234 1.18203 0.677344 11.2359 0.371875 11.568L0 11.9531V17.0133V22.0602L0.332031 22.3789L0.650781 22.7109H4.84766H9.03125V45.0234V67.3492L9.36328 67.668L9.68203 68H14.7422H19.8023L20.1211 67.668L20.4531 67.3492V54.1344V40.9195L23.4945 40.8797C26.5094 40.8398 26.5492 40.8398 26.8813 40.5211L27.2266 40.2023V31.45V22.7109H38.5156H49.8047V25.0352V27.3594L49.4859 27.4922C49.3133 27.5586 48.9547 27.7977 48.6891 28.0367C46.9758 29.5242 47.2547 32.393 49.207 33.5484L49.8047 33.8937V35.607V37.3203H42.3672C34.5047 37.3203 34.3055 37.3336 34.0797 37.918C34.0398 38.0375 34 39.3656 34 40.8531C34 43.5625 34 43.5758 34.332 43.8945L34.6508 44.2266H51H67.3492L67.668 43.8945C68 43.5758 68 43.5625 68 40.8531C68 39.3656 67.9602 38.0375 67.9203 37.918C67.6945 37.3336 67.4953 37.3203 59.6328 37.3203H52.1953V35.607V33.8937L52.793 33.5484C54.7453 32.393 55.0242 29.5242 53.3109 28.0367C53.0453 27.7977 52.6867 27.5586 52.5141 27.4922L52.1953 27.3594V25.0352V22.7109H58.6367H65.0914L65.4102 22.3789L65.7422 22.0602V17V11.9398L65.4102 11.6211L65.0914 11.2891H60.443H55.8078L35.4875 5.64453C24.318 2.53672 14.968 0 14.7023 0C14.4367 0 14.0914 0.11953 13.8656 0.292183ZM31.4766 7.03906C39.4055 9.23047 46.0328 11.0898 46.2188 11.1562C46.418 11.2227 41.1719 11.2758 33.3227 11.2758L20.1078 11.2891L18.4344 7.11875C17.518 4.82109 16.8406 2.96172 16.9203 3.00156C17 3.02812 23.5477 4.84766 31.4766 7.03906ZM16.1234 7.90234C16.8273 9.65547 17.3984 11.1297 17.3984 11.1828C17.3984 11.2492 16.1766 11.2891 14.6891 11.2891H11.9797L13.3211 7.91562C14.0648 6.05625 14.7156 4.56875 14.7688 4.62187C14.8086 4.675 15.4195 6.14922 16.1234 7.90234ZM11.6477 5.60469C11.5547 5.84375 10.9969 7.225 10.4258 8.65937L9.37656 11.2891H6.91953H4.44922L4.84766 10.9703C5.07344 10.7977 6.70703 9.4164 8.5 7.91562C10.293 6.41484 11.7672 5.17969 11.7938 5.17969C11.807 5.17969 11.7406 5.37891 11.6477 5.60469ZM7.17188 13.7195C7.17188 13.7328 6.09609 14.8219 4.78125 16.1367L2.39062 18.5273V16.0969V13.6797H4.78125C6.09609 13.6797 7.17188 13.693 7.17188 13.7195ZM16.2031 13.7195C16.2031 13.7328 15.1273 14.8219 13.8125 16.1367L11.4219 18.5273V16.0969V13.6797H13.8125C15.1273 13.6797 16.2031 13.693 16.2031 13.7195ZM25.3672 13.7195C25.3672 13.7328 24.2648 14.8484 22.9102 16.2031L20.4531 18.6602V16.1633V13.6797H22.9102C24.2648 13.6797 25.3672 13.693 25.3672 13.7195ZM34.3984 13.7195C34.3984 13.7328 33.2961 14.8484 31.9414 16.2031L29.4844 18.6602V16.1633V13.6797H31.9414C33.2961 13.6797 34.3984 13.693 34.3984 13.7195ZM43.4297 13.7195C43.4297 13.7328 42.3539 14.8219 41.0391 16.1367L38.6484 18.5273V16.0969V13.6797H41.0391C42.3539 13.6797 43.4297 13.693 43.4297 13.7195ZM52.5938 13.7195C52.5938 13.7328 51.4914 14.8484 50.1367 16.2031L47.6797 18.6602V16.1633V13.6797H50.1367C51.4914 13.6797 52.5938 13.693 52.5938 13.7195ZM61.625 13.7195C61.625 13.7328 60.5227 14.8484 59.168 16.2031L56.7109 18.6602V16.1633V13.6797H59.168C60.5227 13.6797 61.625 13.693 61.625 13.7195ZM9.03125 17.8633V20.3203H6.54766H4.05078L6.50781 17.8633C7.8625 16.5086 8.97813 15.4062 8.99141 15.4062C9.01797 15.4062 9.03125 16.5086 9.03125 17.8633ZM18.0625 17.8633V20.3203H15.5789H13.082L15.5391 17.8633C16.8938 16.5086 18.0094 15.4062 18.0227 15.4062C18.0492 15.4062 18.0625 16.5086 18.0625 17.8633ZM36.2578 17.8633V20.3203H33.7742H31.2773L33.7344 17.8633C35.0891 16.5086 36.2047 15.4062 36.218 15.4062C36.2445 15.4062 36.2578 16.5086 36.2578 17.8633ZM45.2891 17.8633V20.3203H42.8055H40.3086L42.7656 17.8633C44.1203 16.5086 45.2359 15.4062 45.2492 15.4062C45.2758 15.4062 45.2891 16.5086 45.2891 17.8633ZM54.3203 17.8633V20.3203H51.8367H49.3398L51.7969 17.8633C53.1516 16.5086 54.2672 15.4062 54.2805 15.4062C54.307 15.4062 54.3203 16.5086 54.3203 17.8633ZM27.0938 17.9297V20.3203H24.6766H22.2461L24.6367 17.9297C25.9516 16.6148 27.0406 15.5391 27.0539 15.5391C27.0805 15.5391 27.0938 16.6148 27.0938 17.9297ZM63.3516 17.9297V20.3203H60.9344H58.5039L60.8945 17.9297C62.2094 16.6148 63.2984 15.5391 63.3117 15.5391C63.3383 15.5391 63.3516 16.6148 63.3516 17.9297ZM13.5469 29.0992C13.5469 33.4156 13.5867 35.5672 13.693 35.7531C14.0117 36.3508 14.4102 36.3906 19.7891 36.3906H24.8359V37.4531V38.5156H18.1289H11.4219V30.6133V22.7109H12.4844H13.5469V29.0992ZM24.8359 28.3555V34H23.4813H22.1266L22.8703 33.2297C23.282 32.818 23.6938 32.3 23.7602 32.1008C24.0789 31.2773 23.2289 30.3875 22.3523 30.6133C22.1266 30.6664 21.3031 31.3703 20.3203 32.3531C18.7531 33.8937 18.6203 34 18.1289 34H17.5977L19.4969 32.1008C21.5156 30.082 21.7414 29.7102 21.4492 28.9797C21.2367 28.5016 20.8914 28.2891 20.307 28.2891C19.9352 28.2891 19.6297 28.5281 17.9031 30.2414L15.9375 32.1937V27.4523V22.7109H20.3867H24.8359V28.3555ZM51.7836 29.9625C51.943 30.1617 52.0625 30.4672 52.0625 30.6398C52.0625 31.0914 51.5047 31.6094 51 31.6094C50.4953 31.6094 49.9375 31.0914 49.9375 30.6398C49.9375 30.082 50.4156 29.6172 51 29.6172C51.3984 29.6172 51.5711 29.6969 51.7836 29.9625ZM65.6094 40.7734V41.8359H51H36.3906V40.7734V39.7109H51H65.6094V40.7734ZM16.2031 40.9461C16.2031 40.9594 15.1273 42.0484 13.8125 43.3633L11.4219 45.7539V43.3234V40.9062H13.8125C15.1273 40.9062 16.2031 40.9195 16.2031 40.9461ZM18.0625 45.0898V47.5469H15.5789H13.082L15.5391 45.0898C16.8938 43.7352 18.0094 42.6328 18.0227 42.6328C18.0492 42.6328 18.0625 43.7352 18.0625 45.0898ZM16.3359 49.9773C16.3359 49.9906 15.2336 51.1062 13.8789 52.4609L11.4219 54.918V52.4211V49.9375H13.8789C15.2336 49.9375 16.3359 49.9508 16.3359 49.9773ZM18.0625 54.1211V56.5781H15.5789H13.082L15.5391 54.1211C16.8938 52.7664 18.0094 51.6641 18.0227 51.6641C18.0492 51.6641 18.0625 52.7664 18.0625 54.1211ZM16.3359 59.0086C16.3359 59.0219 15.2336 60.1375 13.8789 61.4922L11.4219 63.9492V61.4523V58.9688H13.8789C15.2336 58.9688 16.3359 58.982 16.3359 59.0086ZM18.0625 63.2188V65.6094H15.6453H13.2148L15.6055 63.2188C16.9203 61.9039 18.0094 60.8281 18.0227 60.8281C18.0492 60.8281 18.0625 61.9039 18.0625 63.2188Z" fill="#F7654A"/>
</svg>
