<svg width="62" height="68" viewBox="0 0 62 68" fill="none" xmlns="http://www.w3.org/2000/svg">
<path d="M29.8711 0.185928C29.3531 0.424988 28.9414 0.876556 28.6758 1.48749C28.5164 1.89921 28.4766 2.65624 28.4766 5.77734V9.56249L25.5414 7.3578C23.9211 6.14921 22.3938 5.06015 22.1281 4.9539C21.4774 4.68827 20.4813 4.8078 19.8438 5.2328C18.9672 5.8039 18.5422 7.18515 18.9274 8.19452C19.1531 8.80546 19.5914 9.17733 24.1336 12.5773L28.4766 15.8312V22.6578C28.4766 26.4164 28.45 29.4844 28.4234 29.4844C28.3305 29.4844 17.0016 22.6844 16.8289 22.525C16.7359 22.432 16.457 20.3203 16.125 17.0664C15.8328 14.1445 15.5539 11.568 15.5141 11.3555C15.2352 9.92109 13.4953 9.03124 12.1008 9.61562C11.5297 9.8414 10.8524 10.6383 10.693 11.2625C10.5867 11.6476 10.6399 12.6172 10.9453 15.4726C11.1578 17.518 11.3172 19.1914 11.3039 19.2047C11.2906 19.218 9.78985 18.3414 7.97032 17.2523C4.82266 15.3664 4.63673 15.2734 3.95938 15.2734C3.14923 15.2734 2.64454 15.4328 2.19298 15.8445C1.7547 16.2562 1.38282 17.1062 1.38282 17.7305C1.38282 18.3281 1.7547 19.218 2.12657 19.5367C2.25938 19.6562 3.80001 20.5992 5.53985 21.6484C7.2797 22.6844 8.68751 23.5609 8.66094 23.5742C8.63438 23.6008 7.09376 24.225 5.23438 24.982C2.52501 26.0711 1.7547 26.443 1.35626 26.8281C0.585945 27.5984 0.413289 28.7672 0.917977 29.7633C1.35626 30.6 2.55157 31.1844 3.48126 31.0117C3.7336 30.9586 6.2172 30.0023 8.9797 28.8734C11.7555 27.7445 14.0531 26.8281 14.0797 26.8281C14.2391 26.8281 25.9531 33.907 25.9531 34C25.9531 34.093 14.2391 41.1719 14.0797 41.1719C14.0531 41.1719 11.7555 40.2555 8.9797 39.1266C6.2172 37.9976 3.7336 37.0414 3.48126 36.9883C2.55157 36.8156 1.35626 37.4 0.917977 38.2367C0.413289 39.2328 0.585945 40.4016 1.35626 41.1719C1.7547 41.557 2.52501 41.9289 5.23438 43.018C7.09376 43.775 8.63438 44.3992 8.66094 44.4258C8.68751 44.4523 7.2797 45.3156 5.53985 46.3648C3.80001 47.4008 2.25938 48.3437 2.12657 48.4633C1.7547 48.782 1.38282 49.6719 1.38282 50.2695C1.38282 50.8937 1.7547 51.7437 2.19298 52.1555C2.64454 52.5672 3.14923 52.7266 3.95938 52.7266C4.63673 52.7266 4.82266 52.6336 7.97032 50.7476C9.78985 49.6586 11.2906 48.782 11.3039 48.7953C11.3172 48.8086 11.1578 50.5086 10.932 52.5937C10.5203 56.618 10.5203 56.8437 11.1047 57.6805C11.7953 58.65 13.6016 58.8758 14.5977 58.1187C15.4344 57.468 15.5008 57.1625 16.1117 51.1328C16.457 47.7195 16.7359 45.568 16.8289 45.475C17.0016 45.3156 28.3305 38.5156 28.4234 38.5156C28.45 38.5156 28.4766 41.5836 28.4766 45.3422V52.1687L24.1336 55.4226C19.5914 58.8226 19.1531 59.1945 18.9274 59.8055C18.5422 60.8148 18.9672 62.1961 19.8438 62.7672C20.4813 63.1922 21.4774 63.3117 22.1281 63.0461C22.3938 62.9398 23.9211 61.8508 25.5414 60.6422L28.4766 58.4375V62.2492C28.4766 66.4992 28.5297 66.7781 29.393 67.5086C30.1633 68.1461 31.6906 68.1726 32.5008 67.5617C33.4039 66.8711 33.457 66.6453 33.4969 62.382C33.5234 60.2836 33.5633 58.5703 33.6031 58.5703C33.6297 58.5703 34.9578 59.5531 36.5516 60.7351C38.1453 61.9305 39.6461 62.9797 39.8984 63.0594C41.5984 63.657 43.4313 62.1562 43.1656 60.3766C43.1125 60.0711 42.9664 59.6328 42.8203 59.407C42.6742 59.1547 40.7484 57.6141 38.0391 55.582L33.5234 52.1953V45.3555C33.5234 41.5969 33.55 38.5156 33.5899 38.5156C33.6164 38.5156 36.2727 40.0961 39.4602 42.0219L45.2773 45.5281L45.8352 50.9601C46.1406 53.9351 46.4594 56.6047 46.5391 56.8836C46.8445 57.9328 48.1594 58.7164 49.2883 58.5172C50.5102 58.2914 51.3203 57.2953 51.3203 56.0203C51.3203 55.6351 51.1742 53.8953 50.9883 52.1422C50.8023 50.4023 50.6563 48.9281 50.6563 48.8617C50.6563 48.8086 52.1039 49.632 53.8836 50.6945C56.9383 52.5406 57.1375 52.6469 57.9078 52.7C58.9172 52.7664 59.568 52.5008 60.0859 51.7703C60.7766 50.8273 60.7234 49.4328 59.9664 48.6226C59.7805 48.4234 58.2 47.4008 56.4602 46.3648C54.7203 45.3156 53.3125 44.4523 53.3391 44.4258C53.3656 44.3992 54.9328 43.7484 56.8188 42.9781C58.718 42.2078 60.4047 41.4375 60.5906 41.2781C61.5602 40.3617 61.6398 38.8078 60.7367 37.7984C60.2453 37.2273 59.3422 36.8687 58.6516 36.9484C58.3859 36.9883 55.8359 37.9578 53.007 39.1133L47.8672 41.2117L41.8906 37.6391C38.6102 35.6734 35.9273 34.0398 35.9273 34C35.9273 33.9601 38.6102 32.3266 41.8906 30.3609L47.8672 26.7883L53.007 28.9C57.6023 30.7859 58.2398 31.0117 58.9172 30.9984C60.2984 30.9984 61.2813 29.9891 61.2813 28.5812C61.2813 27.7976 61.0289 27.1469 60.5641 26.7086C60.3914 26.5492 58.7047 25.7789 56.8188 25.0219C54.9195 24.2516 53.3656 23.6008 53.3391 23.5742C53.3125 23.5476 54.7203 22.6844 56.4602 21.6351C58.2 20.5859 59.7805 19.5633 59.9664 19.3508C60.7234 18.5273 60.7766 17.1726 60.0859 16.2297C59.568 15.4992 58.9172 15.2336 57.9078 15.3C57.1375 15.3531 56.9383 15.4594 53.8836 17.3055C52.1039 18.368 50.6563 19.1914 50.6563 19.1383C50.6563 19.0719 50.8023 17.5976 50.9883 15.8578C51.1742 14.1047 51.3203 12.3648 51.3203 11.9797C51.3203 11.0633 50.9484 10.3328 50.2313 9.86796C49.4477 9.34999 48.2789 9.33671 47.5086 9.85468C46.5391 10.4922 46.4859 10.7047 45.8484 16.907L45.2906 22.4586L39.4734 25.9781C36.2727 27.9039 33.6164 29.4844 33.5899 29.4844C33.55 29.4844 33.5234 26.4031 33.5234 22.6445V15.8047L38.0391 12.418C40.7484 10.3859 42.6742 8.8453 42.8203 8.59296C44.0156 6.62733 42.0633 4.18359 39.8984 4.94062C39.6461 5.0203 38.1453 6.06952 36.5516 7.26484C34.9578 8.44687 33.6297 9.42968 33.6031 9.42968C33.5633 9.42968 33.5234 7.7164 33.4969 5.60468C33.457 1.3414 33.4172 1.1289 32.4875 0.424988C32.1156 0.146088 31.8633 0.0663986 31.1461 0.0398331C30.6016 0.0132751 30.1234 0.0663986 29.8711 0.185928Z" fill="#F7654A"/>
</svg>
