<svg width="68" height="68" viewBox="0 0 68 68" fill="none" xmlns="http://www.w3.org/2000/svg">
<path d="M55.8211 0.265633C55.0641 0.717194 54.732 1.52735 54.918 2.4836C54.9977 2.89532 55.3164 3.30704 56.7508 4.7547L58.4906 6.50782L47.1484 17.8633L35.793 29.2188L32.6055 26.0313C30.8523 24.2914 29.2453 22.7906 29.0461 22.7109C28.382 22.4719 27.718 22.5516 27.0805 22.9633C26.3766 23.4148 18.8727 30.9719 18.1023 32.0078C16.0039 34.8234 15.1406 38.4359 15.7383 41.8758C16.1234 44.1203 17.1859 46.4047 18.5141 47.8922C19.0586 48.5031 19.1383 48.6625 18.9656 48.7555C17.8766 49.3664 15.0078 52.1422 13.9453 53.6297C13.4938 54.2539 13.2812 54.4398 13.0953 54.3867C12.6437 54.2805 10.2133 54.5727 9.16406 54.8516C7.0125 55.4492 4.59531 56.95 3.13437 58.6102C1.71328 60.2438 0.624219 62.3688 0.199219 64.4273C-0.159375 66.1406 -0.0398437 66.8844 0.730469 67.6016L1.08906 67.9336L33.8539 67.9734L66.632 68L67.0836 67.6945C67.7875 67.2297 68.0266 66.6453 67.9469 65.5961C67.8406 64.3875 67.3094 62.382 66.7648 61.107C64.2414 55.2898 57.9727 51.6242 51.7305 52.3281C51 52.4078 50.1102 52.5406 49.7648 52.6336L49.1141 52.793L47.5734 51.2656C46.7102 50.4289 45.4484 49.3398 44.7578 48.8484C43.5359 47.9852 41.1984 46.6969 40.2422 46.3648L39.7906 46.2188L42.5266 43.4563C46.4711 39.4984 46.4977 39.95 42.0219 35.4609L38.7812 32.207L50.1367 20.8516L61.4922 9.50938L63.2453 11.2492C64.8656 12.843 65.0648 13.0023 65.6094 13.082C66.3797 13.1883 67.2297 12.8695 67.6148 12.325C67.9336 11.8867 68.0797 10.9836 67.9469 10.3992C67.8406 9.98751 58.5172 0.531258 57.8797 0.185944C57.3617 -0.0796814 56.3258 -0.0531158 55.8211 0.265633ZM30.6133 29.8828L32.8711 32.1406L30.4539 34.5711C29.1391 35.8992 27.9836 37.1211 27.9039 37.2805C27.6648 37.7453 27.7312 38.7945 28.0234 39.2859C28.568 40.1758 29.7766 40.5078 30.7195 40.0297C30.9586 39.9102 32.207 38.7547 33.5086 37.4797L35.8594 35.1289L38.157 37.4266L40.4414 39.7109L37.7852 42.3539L35.1289 44.9969L34.1992 44.8641C32.7781 44.6648 29.0195 44.8242 27.4258 45.1563C26.35 45.382 23.9992 46.0859 23.1227 46.4445C23.0164 46.4844 22.5914 46.1523 22.0602 45.5945C20.5992 44.0805 19.6562 41.7563 19.6562 39.7109C19.6562 38.1836 20.2406 36.2844 21.1305 34.9695C21.5023 34.3984 28.1164 27.625 28.2891 27.625C28.3289 27.625 29.3781 28.6477 30.6133 29.8828ZM35.3281 49.207C38.7414 49.9641 41.5172 51.3719 44.1203 53.6828C44.6117 54.1344 45.0234 54.5328 45.0234 54.5727C45.0234 54.6125 44.6914 54.8914 44.2797 55.1836C43.257 55.9141 41.4906 57.7734 40.7336 58.9289C39.9633 60.0844 39.4586 61.1867 38.9805 62.7141L38.6219 63.8828H31.8086H24.9953L24.7695 63.1789C23.7734 60.1242 21.5688 57.468 18.7133 55.9273L17.7437 55.3961L19.032 54.1344C21.7547 51.4648 25.2344 49.7117 29.0859 49.0742C30.5336 48.8352 33.9336 48.9016 35.3281 49.207ZM55.4758 56.6578C58.7164 57.375 61.8109 59.9648 63.0328 62.9531C63.2055 63.3914 63.3516 63.7766 63.3516 63.8164C63.3516 63.8563 58.7828 63.8828 53.1914 63.8828C45.0367 63.8828 43.0312 63.843 43.0312 63.7102C43.0312 63.4047 43.9742 61.5852 44.5453 60.7617C45.8336 58.9688 47.7992 57.5875 50.0969 56.8438C51.7703 56.3125 53.643 56.2461 55.4758 56.6578ZM14.6758 58.7695C16.0836 59.1281 17.5977 59.9648 18.5805 60.9477C19.3641 61.718 20.2141 62.9133 20.493 63.6438C20.5727 63.8695 20.1477 63.8828 12.6172 63.8828H4.64844L4.96719 63.2453C6.06953 61.0539 8.06172 59.4469 10.4125 58.8359C11.5945 58.5172 13.5867 58.4906 14.6758 58.7695Z" fill="#F7654A"/>
</svg>
